# xmcd
#
# Track frame offsets: 
#        150
#        16788
#        32152
#        54221
#        68399
#        81303
#        99094
#        115000
#        128901
#        146568
#        172676
#        194230
#
# Disc length: 2935 seconds
#
# Revision: 0
# Processed by: cddbd v1.5.2PL0 Copyright (c) Steve Scherf et al.
# Submitted via: ExactAudioCopy v0.99pb5
#
DISCID=900b750c
DTITLE=Ridley Bent - Wild Card
DYEAR=2014
DGENRE=Country
TTITLE0=Fill Yer Boots
TTITLE1=The Most Beautiful Woman Around
TTITLE2=Good Ol' Cowboy Angel Band
TTITLE3=Brooklyn Texas
TTITLE4=Big Black Hole
TTITLE5=Kickin' Up Dust
TTITLE6=You Got Lucky
TTITLE7=High Lonesome
TTITLE8=Roll It In The Barn
TTITLE9=Crooked And Loaded
TTITLE10=Blood On The Stage
TTITLE11=Who's The Devil Now
EXTD=
EXTT0=
EXTT1=
EXTT2=
EXTT3=
EXTT4=
EXTT5=
EXTT6=
EXTT7=
EXTT8=
EXTT9=
EXTT10=
EXTT11=
PLAYORDER=
